<svg width="24" height="26" viewBox="0 0 24 26" fill="none" xmlns="http://www.w3.org/2000/svg">
<path d="M16 12.75L10.5 17.7917L8 15.5" stroke="#ffff" stroke-width="1.5" stroke-linecap="round" stroke-linejoin="round"/>
<path d="M17 2.84766H19.5C20.163 2.84766 20.7989 3.107 21.2678 3.56862C21.7366 4.03025 22 4.65635 22 5.30919V22.54C22 23.1928 21.7366 23.8189 21.2678 24.2805C20.7989 24.7422 20.163 25.0015 19.5 25.0015H4.5C3.83696 25.0015 3.20107 24.7422 2.73223 24.2805C2.26339 23.8189 2 23.1928 2 22.54V5.30919C2 4.65635 2.26339 4.03025 2.73223 3.56862C3.20107 3.107 3.83696 2.84766 4.5 2.84766H7" stroke="#ffff" stroke-width="1.5" stroke-linecap="round" stroke-linejoin="round"/>
<path d="M15.75 1H8.25C7.55964 1 7 1.55964 7 2.25V4.75C7 5.44036 7.55964 6 8.25 6H15.75C16.4404 6 17 5.44036 17 4.75V2.25C17 1.55964 16.4404 1 15.75 1Z" stroke="#ffff" stroke-width="1.5" stroke-linecap="round" stroke-linejoin="round"/>
</svg>
